REM DIRINDEX 1\2,1\3,1\4
REM DIRNAME cjc151,folder01,folder02,folder03
TITLE ""
FILE "159 159_TOEFL_3900.mp3" MP3
  TRACK 01 AUDIO
    TITLE "2:cjc151_6925"
    INDEX 01 00:00:00
  TRACK 02 AUDIO
    TITLE "0:"
    INDEX 01 00:01:17
  TRACK 03 AUDIO
    TITLE "3:cjc151_6926"
    INDEX 01 00:02:63
  TRACK 04 AUDIO
    TITLE "0:"
    INDEX 01 00:06:06
  TRACK 05 AUDIO
    TITLE "2:cjc151_6927"
    INDEX 01 00:07:52
  TRACK 06 AUDIO
    TITLE "0:"
    INDEX 01 00:10:41
  TRACK 07 AUDIO
    TITLE "3:cjc151_6928"
    INDEX 01 00:12:22
  TRACK 08 AUDIO
    TITLE "0:"
    INDEX 01 00:16:18
  TRACK 09 AUDIO
    TITLE "2:cjc151_6929"
    INDEX 01 00:17:72
  TRACK 10 AUDIO
    TITLE "0:"
    INDEX 01 00:19:40
  TRACK 11 AUDIO
    TITLE "3:cjc151_6930"
    INDEX 01 00:21:19
  TRACK 12 AUDIO
    TITLE "0:"
    INDEX 01 00:25:58
  TRACK 13 AUDIO
    TITLE "2:cjc151_6931"
    INDEX 01 00:27:49
  TRACK 14 AUDIO
    TITLE "0:"
    INDEX 01 00:29:34
  TRACK 15 AUDIO
    TITLE "3:cjc151_6932"
    INDEX 01 00:31:26
  TRACK 16 AUDIO
    TITLE "0:"
    INDEX 01 00:35:47
  TRACK 17 AUDIO
    TITLE "2:cjc151_6933"
    INDEX 01 00:37:24
  TRACK 18 AUDIO
    TITLE "0:"
    INDEX 01 00:38:39
  TRACK 19 AUDIO
    TITLE "3:cjc151_6934"
    INDEX 01 00:40:21
  TRACK 20 AUDIO
    TITLE "0:"
    INDEX 01 00:43:70
  TRACK 21 AUDIO
    TITLE "2:cjc151_6935"
    INDEX 01 00:45:49
  TRACK 22 AUDIO
    TITLE "0:"
    INDEX 01 00:46:66
  TRACK 23 AUDIO
    TITLE "3:cjc151_6936"
    INDEX 01 00:48:48
  TRACK 24 AUDIO
    TITLE "0:"
    INDEX 01 00:52:51
  TRACK 25 AUDIO
    TITLE "2:cjc151_6937"
    INDEX 01 00:54:27
  TRACK 26 AUDIO
    TITLE "0:"
    INDEX 01 00:55:46
  TRACK 27 AUDIO
    TITLE "3:cjc151_6938"
    INDEX 01 00:57:25
  TRACK 28 AUDIO
    TITLE "0:"
    INDEX 01 01:01:15
  TRACK 29 AUDIO
    TITLE "2:cjc151_6939"
    INDEX 01 01:03:02
  TRACK 30 AUDIO
    TITLE "0:"
    INDEX 01 01:04:21
  TRACK 31 AUDIO
    TITLE "3:cjc151_6940"
    INDEX 01 01:06:00
  TRACK 32 AUDIO
    TITLE "0:"
    INDEX 01 01:09:22
  TRACK 33 AUDIO
    TITLE "2:cjc151_6941"
    INDEX 01 01:11:02
  TRACK 34 AUDIO
    TITLE "0:"
    INDEX 01 01:12:11
  TRACK 35 AUDIO
    TITLE "3:cjc151_6942"
    INDEX 01 01:13:65
  TRACK 36 AUDIO
    TITLE "0:"
    INDEX 01 01:18:19
  TRACK 37 AUDIO
    TITLE "2:cjc151_6943"
    INDEX 01 01:20:00
  TRACK 38 AUDIO
    TITLE "0:"
    INDEX 01 01:20:73
  TRACK 39 AUDIO
    TITLE "3:cjc151_6944"
    INDEX 01 01:22:54
  TRACK 40 AUDIO
    TITLE "0:"
    INDEX 01 01:27:10
  TRACK 41 AUDIO
    TITLE "2:cjc151_6945"
    INDEX 01 01:28:63
  TRACK 42 AUDIO
    TITLE "0:"
    INDEX 01 01:29:70
  TRACK 43 AUDIO
    TITLE "3:cjc151_6946"
    INDEX 01 01:31:49
  TRACK 44 AUDIO
    TITLE "0:"
    INDEX 01 01:35:16
  TRACK 45 AUDIO
    TITLE "2:cjc151_6947"
    INDEX 01 01:36:70
  TRACK 46 AUDIO
    TITLE "0:"
    INDEX 01 01:38:04
  TRACK 47 AUDIO
    TITLE "3:cjc151_6948"
    INDEX 01 01:39:57
  TRACK 48 AUDIO
    TITLE "0:"
    INDEX 01 01:44:11
  TRACK 49 AUDIO
    TITLE "2:cjc151_6949"
    INDEX 01 01:45:65
  TRACK 50 AUDIO
    TITLE "0:"
    INDEX 01 01:46:65
  TRACK 51 AUDIO
    TITLE "3:cjc151_6950"
    INDEX 01 01:48:60
  TRACK 52 AUDIO
    TITLE "0:"
    INDEX 01 01:52:63
  TRACK 53 AUDIO
    TITLE "2:cjc151_6951"
    INDEX 01 01:54:42
  TRACK 54 AUDIO
    TITLE "0:"
    INDEX 01 01:56:12
  TRACK 55 AUDIO
    TITLE "3:cjc151_6952"
    INDEX 01 01:57:66
  TRACK 56 AUDIO
    TITLE "0:"
    INDEX 01 02:01:23
  TRACK 57 AUDIO
    TITLE "2:cjc151_6953"
    INDEX 01 02:02:73
  TRACK 58 AUDIO
    TITLE "0:"
    INDEX 01 02:04:59
  TRACK 59 AUDIO
    TITLE "3:cjc151_6954"
    INDEX 01 02:06:38
  TRACK 60 AUDIO
    TITLE "0:"
    INDEX 01 02:10:43
  TRACK 61 AUDIO
    TITLE "2:cjc151_6955"
    INDEX 01 02:12:23
  TRACK 62 AUDIO
    TITLE "0:"
    INDEX 01 02:13:57
  TRACK 63 AUDIO
    TITLE "3:cjc151_6956"
    INDEX 01 02:15:35
  TRACK 64 AUDIO
    TITLE "0:"
    INDEX 01 02:18:72
  TRACK 65 AUDIO
    TITLE "2:cjc151_6957"
    INDEX 01 02:20:50
  TRACK 66 AUDIO
    TITLE "0:"
    INDEX 01 02:22:15
  TRACK 67 AUDIO
    TITLE "3:cjc151_6958"
    INDEX 01 02:23:68
  TRACK 68 AUDIO
    TITLE "0:"
    INDEX 01 02:28:28
  TRACK 69 AUDIO
    TITLE "2:cjc151_6959"
    INDEX 01 02:30:21
  TRACK 70 AUDIO
    TITLE "0:"
    INDEX 01 02:31:34
  TRACK 71 AUDIO
    TITLE "3:cjc151_6960"
    INDEX 01 02:33:11
  TRACK 72 AUDIO
    TITLE "0:"
    INDEX 01 02:37:05
  TRACK 73 AUDIO
    TITLE "2:cjc151_6961"
    INDEX 01 02:38:65
  TRACK 74 AUDIO
    TITLE "0:"
    INDEX 01 02:40:17
  TRACK 75 AUDIO
    TITLE "3:cjc151_6962"
    INDEX 01 02:41:71
  TRACK 76 AUDIO
    TITLE "0:"
    INDEX 01 02:45:54
  TRACK 77 AUDIO
    TITLE "2:cjc151_6963"
    INDEX 01 02:47:31
  TRACK 78 AUDIO
    TITLE "0:"
    INDEX 01 02:48:26
  TRACK 79 AUDIO
    TITLE "3:cjc151_6964"
    INDEX 01 02:50:06
  TRACK 80 AUDIO
    TITLE "0:"
    INDEX 01 02:53:39
  TRACK 81 AUDIO
    TITLE "2:cjc151_6965"
    INDEX 01 02:55:19
  TRACK 82 AUDIO
    TITLE "0:"
    INDEX 01 02:57:43
  TRACK 83 AUDIO
    TITLE "3:cjc151_6966"
    INDEX 01 02:59:22
  TRACK 84 AUDIO
    TITLE "0:"
    INDEX 01 03:02:60
  TRACK 85 AUDIO
    TITLE "2:cjc151_6967"
    INDEX 01 03:04:37
  TRACK 86 AUDIO
    TITLE "0:"
    INDEX 01 03:05:62
  TRACK 87 AUDIO
    TITLE "3:cjc151_6968"
    INDEX 01 03:07:38
  TRACK 88 AUDIO
    TITLE "0:"
    INDEX 01 03:11:26
